<svg xmlns="http://www.w3.org/2000/svg" xml:space="preserve" width="24" height="24" viewBox="0 0 612 612">
	<path
		d="M265.267 193.788c29.384 0 53.29 23.905 53.29 53.29 0 29.384-23.905 53.289-53.29 53.289s-53.29-23.905-53.29-53.289 23.905-53.29 53.29-53.29z" />
	<path
		d="M67.687 502.479c2.347 27.861 27.491 39.706 69.335 32.992 39.884-6.403 59.89 11.861 65.018 33.857 0 0 1.488 11.778 2.392 25.149.666 9.857 8.833 17.523 18.713 17.523h245.481c10.357 0 18.753-8.396 18.753-18.753v-67.884c0-33.429 3.324-83.053 27.298-109.446C581.11 342.78 617.69 246.881 580.59 150.285 537.435 37.92 416.956-12.325 302.562 2.554c-41.504 5.398-81.94 19.668-116.84 42.917C122.036 87.896 76.575 158.722 69.928 235.523c-1.95 22.526 8.749 49.804 3.363 71.242-1.085 4.339-6.971 24.576-51.079 68.055-10.552 10.402-5.448 28.354 8.998 31.647 19.644 4.479 33.171 7.156 35.203 8.317 0 0 .5 78.505 1.274 87.695zM369.23 179.867l3.024-7.339a65.08 65.08 0 0 1-5.902-14.197l-7.302-3.04a6.837 6.837 0 0 1-4.21-6.314v-16.8a6.84 6.84 0 0 1 4.21-6.314l7.302-3.041c1.411-5 3.406-9.757 5.901-14.196l-3.024-7.339a6.838 6.838 0 0 1 1.487-7.441l5.94-5.94 5.94-5.94a6.837 6.837 0 0 1 7.442-1.487l7.339 3.024a65.08 65.08 0 0 1 14.197-5.902l3.041-7.303a6.839 6.839 0 0 1 6.314-4.21h16.8a6.84 6.84 0 0 1 6.314 4.21l3.041 7.303c5 1.411 9.757 3.406 14.197 5.902l7.339-3.024a6.84 6.84 0 0 1 7.442 1.487l5.94 5.94 5.94 5.94a6.836 6.836 0 0 1 1.487 7.441l-3.024 7.339a65.04 65.04 0 0 1 5.901 14.196l7.302 3.041a6.837 6.837 0 0 1 4.21 6.314v16.8a6.841 6.841 0 0 1-4.21 6.314l-7.302 3.041a64.953 64.953 0 0 1-5.902 14.196l3.024 7.339a6.838 6.838 0 0 1-1.487 7.441l-5.94 5.94-5.94 5.939a6.837 6.837 0 0 1-7.442 1.487l-7.339-3.024a65.027 65.027 0 0 1-14.197 5.901l-3.041 7.303a6.839 6.839 0 0 1-6.314 4.21h-16.8a6.84 6.84 0 0 1-6.314-4.21l-3.041-7.302a64.981 64.981 0 0 1-14.197-5.902l-7.339 3.024a6.84 6.84 0 0 1-7.442-1.487l-5.94-5.939-5.94-5.94a6.84 6.84 0 0 1-1.485-7.441zm-206.088 55.694a9.376 9.376 0 0 1 5.772-8.656l10.011-4.168a89.157 89.157 0 0 1 8.091-19.464l-4.146-10.062a9.375 9.375 0 0 1 2.039-10.202l8.143-8.144 8.143-8.143a9.377 9.377 0 0 1 10.203-2.039l10.062 4.146a89.15 89.15 0 0 1 19.463-8.091l4.168-10.012a9.377 9.377 0 0 1 8.657-5.772h23.033a9.376 9.376 0 0 1 8.656 5.772l4.169 10.012a89.15 89.15 0 0 1 19.463 8.091l10.062-4.146a9.377 9.377 0 0 1 10.203 2.039l8.143 8.143 8.144 8.144a9.377 9.377 0 0 1 2.039 10.202l-4.146 10.062a89.137 89.137 0 0 1 8.091 19.464l10.011 4.168a9.375 9.375 0 0 1 5.772 8.656v23.033a9.376 9.376 0 0 1-5.772 8.656l-10.011 4.168a89.157 89.157 0 0 1-8.091 19.464l4.146 10.061a9.377 9.377 0 0 1-2.039 10.203l-8.143 8.143-8.143 8.143a9.377 9.377 0 0 1-10.202 2.039l-10.062-4.146a89.137 89.137 0 0 1-19.464 8.091l-4.169 10.012a9.375 9.375 0 0 1-8.656 5.772H253.75a9.376 9.376 0 0 1-8.656-5.772l-4.168-10.011a89.157 89.157 0 0 1-19.464-8.091l-10.061 4.146a9.377 9.377 0 0 1-10.203-2.039l-8.143-8.143-8.143-8.143a9.377 9.377 0 0 1-2.039-10.203l4.146-10.061a89.157 89.157 0 0 1-8.091-19.464l-10.011-4.168a9.376 9.376 0 0 1-5.772-8.656v-11.516l-.003-11.518z" />
	<path
		d="M429.328 101.709c21.432 0 38.869 17.436 38.869 38.869 0 21.432-17.436 38.868-38.869 38.868s-38.869-17.436-38.869-38.868c0-21.432 17.436-38.869 38.869-38.869z" />
</svg>